<svg xmlns="http://www.w3.org/2000/svg" version="1.1" xmlns:xlink="http://www.w3.org/1999/xlink" xmlns:svgjs="http://svgjs.dev/svgjs" width="1440" height="250" preserveAspectRatio="none" viewBox="0 0 1440 250"><g mask="url(&quot;#SvgjsMask1009&quot;)" fill="none"><rect width="1440" height="250" x="0" y="0" fill="rgba(21, 26, 32, 1)"></rect><path d="M40 250L290 0L342.5 0L92.5 250z" fill="url(&quot;#SvgjsLinearGradient1010&quot;)"></path><path d="M258.6 250L508.6 0L637.6 0L387.6 250z" fill="url(&quot;#SvgjsLinearGradient1010&quot;)"></path><path d="M501.20000000000005 250L751.2 0L955.2 0L705.2 250z" fill="url(&quot;#SvgjsLinearGradient1010&quot;)"></path><path d="M729.8000000000001 250L979.8000000000001 0L1026.3000000000002 0L776.3000000000001 250z" fill="url(&quot;#SvgjsLinearGradient1010&quot;)"></path><path d="M1392 250L1142 0L953 0L1203 250z" fill="url(&quot;#SvgjsLinearGradient1011&quot;)"></path><path d="M1167.4 250L917.4000000000001 0L641.4000000000001 0L891.4000000000001 250z" fill="url(&quot;#SvgjsLinearGradient1011&quot;)"></path><path d="M924.8 250L674.8 0L472.29999999999995 0L722.3 250z" fill="url(&quot;#SvgjsLinearGradient1011&quot;)"></path><path d="M693.1999999999999 250L443.19999999999993 0L137.19999999999993 0L387.19999999999993 250z" fill="url(&quot;#SvgjsLinearGradient1011&quot;)"></path><path d="M1236.7976368526506 250L1440 46.797636852650555L1440 250z" fill="url(&quot;#SvgjsLinearGradient1010&quot;)"></path><path d="M0 250L203.20236314734944 250L 0 46.797636852650555z" fill="url(&quot;#SvgjsLinearGradient1011&quot;)"></path></g><defs><mask id="SvgjsMask1009"><rect width="1440" height="250" fill="#ffffff"></rect></mask><linearGradient x1="0%" y1="100%" x2="100%" y2="0%" id="SvgjsLinearGradient1010"><stop stop-color="rgba(15, 70, 185, 0.2)" offset="0"></stop><stop stop-opacity="0" stop-color="rgba(15, 70, 185, 0.2)" offset="0.66"></stop></linearGradient><linearGradient x1="100%" y1="100%" x2="0%" y2="0%" id="SvgjsLinearGradient1011"><stop stop-color="rgba(15, 70, 185, 0.2)" offset="0"></stop><stop stop-opacity="0" stop-color="rgba(15, 70, 185, 0.2)" offset="0.66"></stop></linearGradient></defs></svg>